<svg width="16" height="16" viewBox="0 0 16 16" fill="none" xmlns="http://www.w3.org/2000/svg">
<path d="M5.57305 2.17068C6.37277 2.4847 7.14583 2.89945 7.87446 3.40604C7.95739 3.46233 8.05217 3.49195 8.14695 3.49195C8.24174 3.49195 8.33652 3.46233 8.41945 3.40604C9.14808 2.89945 9.92114 2.48174 10.7209 2.16771C10.9015 2.09661 11.023 1.91886 11.02 1.72334C11.02 1.52782 10.8986 1.35303 10.7149 1.28489C9.1155 0.677579 7.17841 0.677579 5.58193 1.28489C5.40126 1.35303 5.27686 1.53078 5.27686 1.72334C5.27686 1.9159 5.38941 2.09958 5.57305 2.17068Z" fill="#FFB548"/>
<path d="M12.442 2.17337C12.291 2.06969 12.0984 2.0608 11.9355 2.15264C11.0499 2.66219 10.1939 3.2458 9.38532 3.88866C9.27869 3.97457 9.21353 4.10196 9.2076 4.23823C9.20168 4.37451 9.255 4.50782 9.35274 4.60262C11.0292 6.19941 13.3513 11.0964 13.8845 13.3479C12.7293 11.3927 10.1525 6.79191 8.46713 5.21882C8.28645 5.04996 8.0021 5.04996 7.82143 5.21882C6.13313 6.79191 3.56515 11.3956 2.41 13.3538C2.94315 11.1023 5.25937 6.19941 6.93581 4.60262C7.03652 4.50782 7.08983 4.37451 7.08391 4.23823C7.07799 4.10196 7.01282 3.97457 6.9062 3.88866C6.09759 3.2458 5.23864 2.66219 4.35598 2.15264C4.199 2.0608 4.00055 2.06969 3.8495 2.17337C1.79096 3.59241 0.561768 5.9239 0.561768 8.41239C0.561768 10.2314 1.21635 11.9852 2.41 13.3538C3.83765 15.0306 5.9258 15.9964 8.14428 15.9964C10.3628 15.9964 12.4539 15.0336 13.8845 13.3509C15.0722 11.9881 15.7268 10.2343 15.7268 8.41239C15.7268 5.9239 14.4976 3.59241 12.442 2.17337Z" fill="#FFB548"/>
</svg>
